<svg width="644" height="982" viewBox="0 0 644 982" fill="none" xmlns="http://www.w3.org/2000/svg">
<path d="M218.78 1.49999C94.2805 -12.5 77.9471 282 117.78 392.5C123.78 390.9 186.947 385.167 217.78 382.5C265.781 93.7 282.28 24 218.78 1.49999Z" fill="#FAFAFA" stroke="black"/>
<path d="M533.567 5C399.567 9 409.9 256 426.567 383.5C457.567 384.167 521.567 386.5 537.067 389C523.567 355 654.067 10.5 533.567 5Z" fill="#FAFAFA" stroke="black"/>
<path d="M40.7805 962.5C-16.7195 927.5 6.7805 638.5 1.28051 467C1.61383 450.833 7.48049 417.4 28.2805 413C172.78 362 618.469 372.554 632.781 405.5C647.855 440.202 649.103 873.476 622.781 948.5C606.754 994.177 80.2805 985 40.7805 962.5Z" fill="#FAFAFA" stroke="black"/>
<path d="M430.781 674.5C455.781 674.833 519.081 680.7 572.281 701.5" stroke="black"/>
<path d="M433.281 652C463.781 643.333 537.681 627.6 589.281 634" stroke="black"/>
<path d="M203.78 681C179.947 679.667 120.48 681.9 73.2805 701.5" stroke="black"/>
<path d="M383.281 655C358.481 633.8 272.281 634 250.781 646.5C252.947 670.5 266.381 722.1 302.781 736.5C339.981 727.7 371.947 678.5 383.281 655Z" fill="#FF7A7A" stroke="black"/>
<path d="M213.78 649.5C187.28 643.167 119.58 632.4 60.7805 640" stroke="black"/>
</svg>
